<?xml version="1.0" standalone="no"?>
<!DOCTYPE svg PUBLIC "-//W3C//DTD SVG 20010904//EN"
 "http://www.w3.org/TR/2001/REC-SVG-20010904/DTD/svg10.dtd">
<svg version="1.0" xmlns="http://www.w3.org/2000/svg"
 width="840.000000pt" height="840.000000pt" viewBox="0 0 840.000000 840.000000"
 preserveAspectRatio="xMidYMid meet">
<metadata>
Created by potrace 1.14, written by Peter Selinger 2001-2017
</metadata>
<g transform="translate(0.000000,840.000000) scale(0.100000,-0.100000)"
fill="#000000" stroke="none">
<path d="M2016 7908 c-335 -33 -638 -207 -831 -476 -78 -110 -152 -296 -171
-432 -4 -30 -8 -370 -9 -755 -1 -385 -4 -713 -8 -730 -4 -16 -9 -46 -12 -65
-11 -62 -65 -213 -102 -280 -119 -219 -306 -395 -535 -505 -84 -40 -282 -105
-321 -105 -13 0 -15 -43 -15 -350 l0 -349 51 -14 c29 -8 75 -20 102 -28 28 -7
82 -26 120 -42 390 -164 661 -502 711 -887 4 -30 8 -365 9 -745 1 -379 5 -710
9 -735 75 -456 440 -810 921 -895 64 -11 187 -17 373 -19 l192 -1 1 25 c1 35
1 580 0 606 -1 21 -5 21 -174 23 -120 1 -191 6 -232 16 -179 47 -320 177 -369
338 -15 52 -15 49 -20 832 -2 325 -7 608 -10 630 -53 320 -154 562 -335 805
-88 118 -282 307 -391 380 -12 8 -35 25 -52 37 l-30 21 24 13 c37 20 198 151
269 220 251 243 437 579 493 891 8 46 18 99 22 118 4 19 8 338 10 708 2 370 5
685 7 700 24 139 132 282 263 346 97 48 164 59 351 60 166 1 173 2 174 21 4
115 0 617 -5 623 -10 9 -388 9 -480 0z"/>
<path d="M5852 7910 c-6 -4 -9 -590 -3 -635 1 -7 58 -10 154 -11 177 0 238 -7
307 -33 149 -57 256 -164 305 -307 l23 -69 2 -645 c0 -355 3 -663 5 -685 22
-226 66 -386 156 -574 89 -188 196 -339 343 -487 87 -88 277 -244 297 -244 22
0 6 -21 -38 -51 -27 -18 -50 -35 -53 -38 -3 -4 -23 -19 -45 -36 -53 -39 -105
-86 -181 -165 -255 -264 -413 -583 -468 -945 -11 -69 -15 -244 -15 -743 -1
-436 -5 -671 -13 -705 -30 -142 -130 -266 -266 -332 -89 -43 -156 -54 -342
-57 l-175 -3 0 -323 c0 -208 4 -322 10 -323 60 -4 417 0 470 5 446 44 832 337
963 731 49 147 50 159 51 875 2 643 3 722 16 815 46 322 289 643 612 808 97
49 242 101 316 112 33 5 47 12 48 24 2 62 1 683 -2 685 -2 2 -49 15 -104 29
-95 23 -134 38 -250 93 -86 41 -101 51 -205 132 -247 193 -401 471 -425 767
-2 33 -5 362 -6 730 -1 739 -2 751 -66 916 -92 237 -287 446 -530 568 -62 31
-154 68 -190 76 -10 2 -45 11 -78 19 -33 8 -85 18 -115 22 -64 8 -497 12 -508
4z"/>
<path d="M2142 5978 l3 -343 845 0 845 0 3 -1942 2 -1942 355 0 c329 0 355 1
356 17 0 21 0 4404 0 4490 l-1 62 -1205 0 -1205 0 2 -342z"/>
<path d="M4882 5993 c0 -181 2 -335 4 -343 3 -13 87 -15 686 -15 l683 0 3 343
2 342 -688 0 -689 0 -1 -327z"/>
<path d="M4885 4650 c-1 -3 -2 -168 -2 -367 l0 -363 446 0 446 0 0 365 c0 238
-3 365 -10 366 -34 4 -877 3 -880 -1z"/>
</g>
</svg>
